<?xml version="1.0" encoding="UTF-8" standalone="no"?>
<!DOCTYPE svg PUBLIC "-//W3C//DTD SVG 1.1//EN" "http://www.w3.org/Graphics/SVG/1.1/DTD/svg11.dtd">
<svg width="100%" height="100%" viewBox="0 0 479 479" version="1.1" xmlns="http://www.w3.org/2000/svg" xmlns:xlink="http://www.w3.org/1999/xlink" xml:space="preserve" xmlns:serif="http://www.serif.com/" style="fill-rule:evenodd;clip-rule:evenodd;stroke-linejoin:round;stroke-miterlimit:2;">
    <g id="Layer_3" transform="matrix(1,0,0,1,-160.507,-160.507)">
        <circle cx="400" cy="400" r="239.493" style="fill:rgb(255,197,0);"/>
        <path d="M416.976,605.58C284.683,605.58 177.483,498.341 177.483,366.088C177.45,335.361 183.333,304.913 194.81,276.41C172.298,313.694 160.433,356.446 160.507,400C160.507,532.254 267.746,639.493 400,639.493C500.566,639.493 586.654,577.522 622.127,489.678C580.215,559.141 504,605.58 416.976,605.58Z" style="fill:rgb(255,159,30);fill-rule:nonzero;"/>
        <path d="M400,160.507C348.695,160.414 298.707,176.899 257.522,207.493C314.054,185.677 376.229,183.084 434.38,200.117C433.88,200.731 433.448,201.399 433.093,202.107C425.99,215.337 440.468,236.878 465.366,250.224C490.263,263.571 516.254,263.727 523.356,250.537C524.033,249.248 524.519,247.867 524.8,246.439C589.268,296.39 630.907,374.478 631.298,462.283C636.754,441.972 639.509,421.031 639.493,400C639.493,267.746 532.254,160.507 400,160.507Z" style="fill:rgb(255,224,89);fill-rule:nonzero;"/>
        <g transform="matrix(0.5,-0.866025,0.866025,0.5,20.839,461.815)">
            <ellipse cx="410.38" cy="212.878" rx="12.02" ry="17.171" style="fill:rgb(255,224,89);"/>
        </g>
        <path d="M454.517,494.4C418.895,484.176 381.105,484.176 345.483,494.4C345.483,464.985 369.688,440.78 399.102,440.78L400.898,440.78C430.312,440.78 454.517,464.985 454.517,494.4Z" style="fill:rgb(0,48,95);fill-rule:nonzero;"/>
        <g transform="matrix(0.0436194,-0.999048,0.999048,0.0436194,-66.7707,656.741)">
            <ellipse cx="309.541" cy="363.239" rx="37.034" ry="36.488" style="fill:rgb(0,48,95);"/>
        </g>
        <circle cx="296.468" cy="350.049" r="9.6" style="fill:white;"/>
        <circle cx="325.112" cy="373.346" r="10.146" style="fill:white;"/>
        <circle cx="301.268" cy="378.185" r="4.8" style="fill:white;"/>
        <g transform="matrix(0.0436194,-0.999048,0.999048,0.0436194,105.561,836.722)">
            <ellipse cx="489.678" cy="363.239" rx="37.034" ry="36.488" style="fill:rgb(0,48,95);"/>
        </g>
        <circle cx="476.605" cy="350.049" r="9.6" style="fill:white;"/>
        <circle cx="505.249" cy="373.346" r="10.146" style="fill:white;"/>
        <circle cx="481.405" cy="378.185" r="4.8" style="fill:white;"/>
        <path d="M250.068,329.795L250.022,329.795C243.599,329.795 238.314,324.51 238.314,318.088C238.314,312.675 242.068,307.934 247.337,306.693C255.582,304.459 263.563,301.346 271.141,297.405C281.405,292.02 294.439,282.849 298.341,269.893C299.82,264.949 304.401,261.538 309.561,261.538C315.985,261.538 321.272,266.824 321.272,273.249C321.272,274.385 321.106,275.516 320.78,276.605C315.785,293.19 302.205,307.668 281.522,318.4C272.395,323.152 262.76,326.857 252.8,329.444C251.907,329.673 250.99,329.791 250.068,329.795Z" style="fill:rgb(0,48,95);fill-rule:nonzero;"/>
        <path d="M549.932,329.795C549.01,329.791 548.093,329.673 547.2,329.444C537.24,326.857 527.605,323.152 518.478,318.4C497.795,307.668 484.215,293.19 479.22,276.605C478.894,275.516 478.728,274.385 478.728,273.249C478.728,266.824 484.015,261.538 490.439,261.538C495.599,261.538 500.18,264.949 501.659,269.893C509.385,295.688 552.234,306.576 552.663,306.693C557.932,307.934 561.686,312.675 561.686,318.088C561.686,324.51 556.401,329.795 549.978,329.795L549.932,329.795Z" style="fill:rgb(0,48,95);fill-rule:nonzero;"/>
        <path d="M268.02,472.156C263.247,467.399 261.809,460.195 264.39,453.971L276.293,425.093C276.896,423.693 278.281,422.782 279.805,422.782C281.329,422.782 282.714,423.693 283.317,425.093L295.259,453.971C297.818,460.198 296.383,467.389 291.629,472.156C285.151,478.628 274.497,478.628 268.02,472.156Z" style="fill:rgb(71,149,255);fill-rule:nonzero;"/>
    </g>
</svg>
